<?xml version="1.0" encoding="utf-8"?>
<!-- Generator: Adobe Illustrator 19.1.0, SVG Export Plug-In . SVG Version: 6.00 Build 0)  -->
<svg version="1.1" id="Layer_1" xmlns="http://www.w3.org/2000/svg" xmlns:xlink="http://www.w3.org/1999/xlink" x="0px" y="0px"
	 viewBox="0 0 36 36" style="enable-background:new 0 0 36 36;" xml:space="preserve">
<style type="text/css">
	.st0{clip-path:url(#SVGID_2_);fill:#FFFFFF;}
	.st1{clip-path:url(#SVGID_2_);fill:#362E6E;}
	.st2{fill:#362E6E;}
	.st3{clip-path:url(#SVGID_4_);fill:#362E6E;}
</style>
<g>
	<defs>
		<rect id="SVGID_1_" width="36" height="36"/>
	</defs>
	<clipPath id="SVGID_2_">
		<use xlink:href="#SVGID_1_"  style="overflow:visible;"/>
	</clipPath>
	<path class="st0" d="M18,36c9.9,0,18-8.1,18-18S27.9,0,18,0S0,8.1,0,18S8.1,36,18,36"/>
	<path class="st1" d="M23.2,14.6c0-0.8-0.6-1.4-1.4-1.4h-7.6c-0.8,0-1.4,0.6-1.4,1.4v12.2c0,0.8,0.6,1.4,1.4,1.4h7.6
		c0.8,0,1.4-0.6,1.4-1.4V14.6z"/>
	<path class="st1" d="M16.2,28.2c0,0.3-0.2,0.5-0.5,0.5h-0.6c-0.3,0-0.5-0.2-0.5-0.5v-0.1c0-0.3,0.2-0.5,0.5-0.5h0.6
		C16,27.7,16.2,27.9,16.2,28.2L16.2,28.2z"/>
	<path class="st1" d="M21.3,28.2c0,0.3-0.2,0.5-0.5,0.5h-0.6c-0.3,0-0.5-0.2-0.5-0.5v-0.1c0-0.3,0.2-0.5,0.5-0.5h0.6
		C21,27.7,21.3,27.9,21.3,28.2L21.3,28.2z"/>
</g>
<rect x="15.1" y="9" class="st2" width="0.7" height="4"/>
<rect x="20.2" y="9" class="st2" width="0.7" height="4"/>
<g>
	<defs>
		<rect id="SVGID_3_" width="36" height="36"/>
	</defs>
	<clipPath id="SVGID_4_">
		<use xlink:href="#SVGID_3_"  style="overflow:visible;"/>
	</clipPath>
	<path class="st3" d="M21.2,8.6H20V6.8c0-0.1-0.1-0.2-0.2-0.2h-3.6c-0.1,0-0.2,0.1-0.2,0.2v1.8h-1.2V6.8c0-0.8,0.6-1.4,1.4-1.4h3.6
		c0.8,0,1.4,0.6,1.4,1.4V8.6z"/>
</g>
</svg>
