<?xml version="1.0" encoding="utf-8"?>
<!-- Generator: Adobe Illustrator 19.1.0, SVG Export Plug-In . SVG Version: 6.00 Build 0)  -->
<svg version="1.1" id="Layer_1" xmlns="http://www.w3.org/2000/svg" xmlns:xlink="http://www.w3.org/1999/xlink" x="0px" y="0px"
	 viewBox="0 0 167.5 45.6" style="enable-background:new 0 0 167.5 45.6;" xml:space="preserve">
<style type="text/css">
	.st0{clip-path:url(#SVGID_2_);fill:#363175;}
</style>
<g>
	<defs>
		<rect id="SVGID_1_" x="0" y="0" width="167.5" height="45.6"/>
	</defs>
	<clipPath id="SVGID_2_">
		<use xlink:href="#SVGID_1_"  style="overflow:visible;"/>
	</clipPath>
	<path class="st0" d="M145.6,25H4.4v-1.2h140.4C145.1,24.2,145.4,24.6,145.6,25 M129,16.6H98.4V3.9H129V16.6z M96.9,16.6h-25V3.9h25
		V16.6z M70.4,16.6H43.5V3.9h26.9V16.6z M41.9,16.6H18.1V3.9h23.8V16.6z M3.4,16.6C4.5,4,6.1,3.7,16.5,3.9v12.7H3.4z M146.7,3.9
		c10.1,0.1,9.1,4.2,17.7,24.7c0,1.2,0.1,2.4,0.1,3.6c-3.5-1.3-10.4-2.3-13.8-3.2c-0.2,0-0.3,0-0.5-0.1c-1.4-7-7.6-12.3-15-12.3h-4.6
		V3.9H146.7z M164.7,40.7c0.9,0.3,2.2-1.5,2.6-4c-0.3-3.1,0.2-6.3-0.4-9.1c-1.6-6.4-3.9-12.1-6.4-17.9c0.7,0,1.3,0,2,0.2
		c1.2,0.3,1.8,0.6,2.2,1.7c0.5,1.2,0.8,2.7,1.2,4.1c0.9,0.2,1.6,0.2,1.7-0.3c-0.2-1.5-0.5-3-1-4.2c-0.4-1.1-0.9-1.8-2-2.3
		c-1.2-0.5-2.9-0.6-4.6-0.5c-2.1-4.8-3-6.7-10.2-6.7h-12.4h0h-11.4l0,0c0,0,0-0.1,0-0.1c0-0.9-0.7-1.6-1.6-1.6h-13.9H9.4
		C8.8,0,8.3,0.3,8,0.8C4.1,1.4,1.9,5.4,0.9,11.8C-0.3,19.5,0.3,29.4,0,38.2c0.2,3.6,23.2,3.5,26.7,3.5v-4.2c0-3.7,3-6.7,6.7-6.7h2.8
		c3.7,0,6.7,3,6.7,6.7V42c0.7,0,1.7,0,2.5,0v-4.4c0-3.7,3-6.7,6.7-6.7h2.8c3.7,0,6.7,3,6.7,6.7v4.4c24.2-0.1,41.2-0.1,65.5-0.2v-4.2
		c0-3.7,3-6.7,6.7-6.7h2.8c3.7,0,6.7,3,6.7,6.7v3.8L164.7,40.7z"/>
	<path class="st0" d="M132.4,39c0-1.5,1.2-2.7,2.7-2.7c1.5,0,2.7,1.2,2.7,2.7c0,1.5-1.2,2.7-2.7,2.7C133.6,41.7,132.4,40.5,132.4,39
		 M128.5,39c0,3.7,3,6.6,6.6,6.6c3.7,0,6.6-3,6.6-6.6c0-3.7-3-6.6-6.6-6.6C131.4,32.3,128.5,35.3,128.5,39"/>
	<path class="st0" d="M50.8,39c0-1.5,1.2-2.7,2.7-2.7c1.5,0,2.7,1.2,2.7,2.7c0,1.5-1.2,2.7-2.7,2.7C52.1,41.7,50.8,40.5,50.8,39
		 M46.9,39c0,3.7,3,6.6,6.6,6.6c3.7,0,6.6-3,6.6-6.6c0-3.7-3-6.6-6.6-6.6C49.9,32.3,46.9,35.3,46.9,39"/>
	<path class="st0" d="M32.3,39c0-1.5,1.2-2.7,2.7-2.7c1.5,0,2.7,1.2,2.7,2.7c0,1.5-1.2,2.7-2.7,2.7C33.5,41.7,32.3,40.5,32.3,39
		 M28.4,39c0,3.7,3,6.6,6.6,6.6c3.7,0,6.6-3,6.6-6.6c0-3.7-3-6.6-6.6-6.6C31.3,32.3,28.4,35.3,28.4,39"/>
</g>
</svg>
