<?xml version="1.0" encoding="utf-8"?>
<!-- Generator: Adobe Illustrator 19.1.0, SVG Export Plug-In . SVG Version: 6.00 Build 0)  -->
<svg version="1.1" id="Layer_1" xmlns="http://www.w3.org/2000/svg" xmlns:xlink="http://www.w3.org/1999/xlink" x="0px" y="0px"
	 viewBox="0 0 36 36" style="enable-background:new 0 0 36 36;" xml:space="preserve">
<style type="text/css">
	.st0{clip-path:url(#SVGID_2_);fill:#FFFFFF;}
	.st1{clip-path:url(#SVGID_2_);fill:#362E6E;}
</style>
<g>
	<defs>
		<rect id="SVGID_1_" width="36" height="36"/>
	</defs>
	<clipPath id="SVGID_2_">
		<use xlink:href="#SVGID_1_"  style="overflow:visible;"/>
	</clipPath>
	<path class="st0" d="M18,36c9.9,0,18-8.1,18-18S27.9,0,18,0S0,8.1,0,18S8.1,36,18,36"/>
	<path class="st1" d="M21.1,14.9c-0.3,0-0.6-0.3-0.6-0.6c0-0.3,0.3-0.6,0.6-0.6c0.3,0,0.6,0.3,0.6,0.6
		C21.7,14.6,21.5,14.9,21.1,14.9 M15.4,14.9c-0.3,0-0.6-0.3-0.6-0.6c0-0.3,0.3-0.6,0.6-0.6c0.3,0,0.6,0.3,0.6,0.6
		C16,14.6,15.8,14.9,15.4,14.9 M25.9,24.5l-1.3-9.9c-0.1-1-1.1-1.8-2.1-1.8H14c-1,0-2,0.8-2.1,1.8l-1.3,9.9c-0.1,1,0.6,1.8,1.6,1.8
		h12C25.3,26.4,26,25.5,25.9,24.5"/>
	<path class="st1" d="M21.9,13.2l-1.1,0l0.6,0l-0.6,0c0,0,0-2.6-1.1-3.8c-0.4-0.4-0.8-0.6-1.4-0.6c-0.6,0-1,0.2-1.4,0.6
		c-1,1-1.1,3.1-1.1,3.8l-1.1,0c0-0.1-0.1-3.1,1.4-4.6c0.6-0.6,1.3-0.9,2.2-0.9s1.6,0.3,2.2,0.9C22,10.1,21.9,13.1,21.9,13.2"/>
</g>
</svg>
