<?xml version="1.0" encoding="utf-8"?>
<!-- Generator: Adobe Illustrator 19.1.0, SVG Export Plug-In . SVG Version: 6.00 Build 0)  -->
<svg version="1.1" id="Layer_1" xmlns="http://www.w3.org/2000/svg" xmlns:xlink="http://www.w3.org/1999/xlink" x="0px" y="0px"
	 viewBox="0 0 30.2 30.2" style="enable-background:new 0 0 30.2 30.2;" xml:space="preserve">
<style type="text/css">
	.st0{clip-path:url(#SVGID_2_);fill:none;stroke:#EF4781;stroke-width:0.905;stroke-miterlimit:10;}
	.st1{clip-path:url(#SVGID_2_);fill:#EF4781;}
</style>
<g>
	<defs>
		<rect id="SVGID_1_" width="30.2" height="30.2"/>
	</defs>
	<clipPath id="SVGID_2_">
		<use xlink:href="#SVGID_1_"  style="overflow:visible;"/>
	</clipPath>
	<circle class="st0" cx="15.1" cy="15.1" r="14.6"/>
	<path class="st1" d="M22.5,18.9c0,0.1-0.1,0.1-0.1,0.1H8c-0.1,0-0.1-0.1-0.1-0.1v-9c0-0.1,0.1-0.1,0.1-0.1h14.4
		c0.1,0,0.1,0.1,0.1,0.1V18.9z M22.3,9.1H8c-0.5,0-0.8,0.4-0.8,0.8v9c0,0.5,0.4,0.8,0.8,0.8h6.1v0.7c-1.3,0.1-3.3,0.2-3.3,0.6v0.4
		c0,0,0,0,0,0h8.7c0,0,0,0,0,0v-0.4c0-0.4-2.1-0.5-3.3-0.6v-0.7h6.1c0.5,0,0.8-0.4,0.8-0.8v-9C23.2,9.5,22.8,9.1,22.3,9.1"/>
</g>
</svg>
