<?xml version="1.0" encoding="utf-8"?>
<!-- Generator: Adobe Illustrator 19.1.0, SVG Export Plug-In . SVG Version: 6.00 Build 0)  -->
<svg version="1.1" id="Layer_1" xmlns="http://www.w3.org/2000/svg" xmlns:xlink="http://www.w3.org/1999/xlink" x="0px" y="0px"
	 viewBox="0 0 59.9 60" style="enable-background:new 0 0 59.9 60;" xml:space="preserve">
<style type="text/css">
	.st0{fill:#26B7EB;}
	.st1{fill:#FFFFFF;}
</style>
<g>
	<ellipse class="st0" cx="29.9" cy="30" rx="30" ry="30"/>
	<path class="st1" d="M45.9,19.3c-1.1,0.6-2.5,1-3.7,1.1c1.4-0.9,2.4-2.2,2.9-3.9c-1.2,0.8-2.6,1.4-4.2,1.8
		c-1.2-1.4-2.9-2.2-4.7-2.2c-3.6,0-6.6,3.1-6.6,7.1c0,0.5,0,1.1,0.1,1.6c-5.5-0.2-10.4-3.1-13.6-7.4c-0.6,1-0.9,2.2-0.9,3.6
		c0,2.5,1.1,4.6,2.9,5.9c-1.1,0-2.1-0.4-3-0.9v0.1c0,3.4,2.2,6.3,5.2,7c-0.5,0.1-1.1,0.2-1.7,0.2c-0.4,0-0.9,0-1.2-0.1
		c0.9,2.9,3.2,4.9,6.1,4.9c-2.2,1.9-5.1,3-8.1,3c-0.5,0-1,0-1.6-0.1c2.9,2,6.4,3.2,10.1,3.2c12.1,0,18.7-10.8,18.7-20.1
		c0-0.2,0-0.6,0-0.9C43.9,22,45,20.8,45.9,19.3z"/>
</g>
</svg>
