<svg id="Layer_1" xmlns="http://www.w3.org/2000/svg" xmlns:xlink="http://www.w3.org/1999/xlink" viewBox="0 0 36 36"><style>.st0{fill:#fff}.st0,.st1{clip-path:url(#SVGID_2_)}.st1,.st2,.st3{fill:#362e6e}.st3{clip-path:url(#SVGID_4_)}</style><defs><path id="SVGID_1_" d="M0 0h36v36H0z"/></defs><clipPath id="SVGID_2_"><use xlink:href="#SVGID_1_" overflow="visible"/></clipPath><path class="st0" d="M18 36c9.9 0 18-8.1 18-18S27.9 0 18 0 0 8.1 0 18s8.1 18 18 18"/><path class="st1" d="M23.2 14.6c0-.8-.6-1.4-1.4-1.4h-7.6c-.8 0-1.4.6-1.4 1.4v12.2c0 .8.6 1.4 1.4 1.4h7.6c.8 0 1.4-.6 1.4-1.4V14.6z"/><path class="st1" d="M16.2 28.2c0 .3-.2.5-.5.5h-.6c-.3 0-.5-.2-.5-.5v-.1c0-.3.2-.5.5-.5h.6c.3.1.5.3.5.6zM21.3 28.2c0 .3-.2.5-.5.5h-.6c-.3 0-.5-.2-.5-.5v-.1c0-.3.2-.5.5-.5h.6c.2.1.5.3.5.6z"/><path class="st2" d="M15.1 9h.7v4h-.7zM20.2 9h.7v4h-.7z"/><g><defs><path id="SVGID_3_" d="M0 0h36v36H0z"/></defs><clipPath id="SVGID_4_"><use xlink:href="#SVGID_3_" overflow="visible"/></clipPath><path class="st3" d="M21.2 8.6H20V6.8c0-.1-.1-.2-.2-.2h-3.6c-.1 0-.2.1-.2.2v1.8h-1.2V6.8c0-.8.6-1.4 1.4-1.4h3.6c.8 0 1.4.6 1.4 1.4v1.8z"/></g></svg>