<svg id="Layer_1" xmlns="http://www.w3.org/2000/svg" xmlns:xlink="http://www.w3.org/1999/xlink" viewBox="0 0 167.5 45.6"><style>.st0{clip-path:url(#SVGID_2_);fill:#363175}</style><defs><path id="SVGID_1_" d="M0 0h167.5v45.6H0z"/></defs><clipPath id="SVGID_2_"><use xlink:href="#SVGID_1_" overflow="visible"/></clipPath><path class="st0" d="M145.6 25H4.4v-1.2h140.4c.3.4.6.8.8 1.2M129 16.6H98.4V3.9H129v12.7zm-32.1 0h-25V3.9h25v12.7zm-26.5 0H43.5V3.9h26.9v12.7zm-28.5 0H18.1V3.9h23.8v12.7zm-38.5 0C4.5 4 6.1 3.7 16.5 3.9v12.7H3.4zM146.7 3.9c10.1.1 9.1 4.2 17.7 24.7 0 1.2.1 2.4.1 3.6-3.5-1.3-10.4-2.3-13.8-3.2-.2 0-.3 0-.5-.1-1.4-7-7.6-12.3-15-12.3h-4.6V3.9h16.1zm18 36.8c.9.3 2.2-1.5 2.6-4-.3-3.1.2-6.3-.4-9.1-1.6-6.4-3.9-12.1-6.4-17.9.7 0 1.3 0 2 .2 1.2.3 1.8.6 2.2 1.7.5 1.2.8 2.7 1.2 4.1.9.2 1.6.2 1.7-.3-.2-1.5-.5-3-1-4.2-.4-1.1-.9-1.8-2-2.3-1.2-.5-2.9-.6-4.6-.5-2.1-4.8-3-6.7-10.2-6.7H126v-.1c0-.9-.7-1.6-1.6-1.6H9.4C8.8 0 8.3.3 8 .8c-3.9.6-6.1 4.6-7.1 11C-.3 19.5.3 29.4 0 38.2c.2 3.6 23.2 3.5 26.7 3.5v-4.2c0-3.7 3-6.7 6.7-6.7h2.8c3.7 0 6.7 3 6.7 6.7V42h2.5v-4.4c0-3.7 3-6.7 6.7-6.7h2.8c3.7 0 6.7 3 6.7 6.7V42c24.2-.1 41.2-.1 65.5-.2v-4.2c0-3.7 3-6.7 6.7-6.7h2.8c3.7 0 6.7 3 6.7 6.7v3.8l21.4-.7z"/><path class="st0" d="M132.4 39c0-1.5 1.2-2.7 2.7-2.7 1.5 0 2.7 1.2 2.7 2.7 0 1.5-1.2 2.7-2.7 2.7-1.5 0-2.7-1.2-2.7-2.7m-3.9 0c0 3.7 3 6.6 6.6 6.6 3.7 0 6.6-3 6.6-6.6 0-3.7-3-6.6-6.6-6.6-3.7-.1-6.6 2.9-6.6 6.6M50.8 39c0-1.5 1.2-2.7 2.7-2.7 1.5 0 2.7 1.2 2.7 2.7 0 1.5-1.2 2.7-2.7 2.7-1.4 0-2.7-1.2-2.7-2.7m-3.9 0c0 3.7 3 6.6 6.6 6.6 3.7 0 6.6-3 6.6-6.6 0-3.7-3-6.6-6.6-6.6-3.6-.1-6.6 2.9-6.6 6.6M32.3 39c0-1.5 1.2-2.7 2.7-2.7 1.5 0 2.7 1.2 2.7 2.7 0 1.5-1.2 2.7-2.7 2.7-1.5 0-2.7-1.2-2.7-2.7m-3.9 0c0 3.7 3 6.6 6.6 6.6 3.7 0 6.6-3 6.6-6.6 0-3.7-3-6.6-6.6-6.6-3.7-.1-6.6 2.9-6.6 6.6"/></svg>