<svg id="Layer_1" xmlns="http://www.w3.org/2000/svg" xmlns:xlink="http://www.w3.org/1999/xlink" viewBox="0 0 36 36"><style>.st0,.st1{clip-path:url(#SVGID_2_);fill:#fff}.st1{fill:#362e6e}</style><defs><path id="SVGID_1_" d="M0 0h36v36H0z"/></defs><clipPath id="SVGID_2_"><use xlink:href="#SVGID_1_" overflow="visible"/></clipPath><path class="st0" d="M18 36c9.9 0 18-8.1 18-18S27.9 0 18 0 0 8.1 0 18s8.1 18 18 18"/><path class="st1" d="M21.1 14.9c-.3 0-.6-.3-.6-.6s.3-.6.6-.6.6.3.6.6-.2.6-.6.6m-5.7 0c-.3 0-.6-.3-.6-.6s.3-.6.6-.6.6.3.6.6-.2.6-.6.6m10.5 9.6l-1.3-9.9c-.1-1-1.1-1.8-2.1-1.8H14c-1 0-2 .8-2.1 1.8l-1.3 9.9c-.1 1 .6 1.8 1.6 1.8h12c1.1.1 1.8-.8 1.7-1.8"/><path class="st1" d="M21.9 13.2h-1.1.6-.6s0-2.6-1.1-3.8c-.4-.4-.8-.6-1.4-.6-.6 0-1 .2-1.4.6-1 1-1.1 3.1-1.1 3.8h-1.1c0-.1-.1-3.1 1.4-4.6.6-.6 1.3-.9 2.2-.9s1.6.3 2.2.9c1.5 1.5 1.4 4.5 1.4 4.6"/></svg>