<svg id="Layer_1" xmlns="http://www.w3.org/2000/svg" viewBox="0 0 59.9 60"><style>.st0{fill:#26b7eb}.st1{fill:#fff}</style><ellipse class="st0" cx="29.9" cy="30" rx="30" ry="30"/><path class="st1" d="M45.9 19.3c-1.1.6-2.5 1-3.7 1.1 1.4-.9 2.4-2.2 2.9-3.9-1.2.8-2.6 1.4-4.2 1.8-1.2-1.4-2.9-2.2-4.7-2.2-3.6 0-6.6 3.1-6.6 7.1 0 .5 0 1.1.1 1.6-5.5-.2-10.4-3.1-13.6-7.4-.6 1-.9 2.2-.9 3.6 0 2.5 1.1 4.6 2.9 5.9-1.1 0-2.1-.4-3-.9v.1c0 3.4 2.2 6.3 5.2 7-.5.1-1.1.2-1.7.2-.4 0-.9 0-1.2-.1.9 2.9 3.2 4.9 6.1 4.9-2.2 1.9-5.1 3-8.1 3-.5 0-1 0-1.6-.1 2.9 2 6.4 3.2 10.1 3.2 12.1 0 18.7-10.8 18.7-20.1v-.9c1.3-1.2 2.4-2.4 3.3-3.9z"/></svg>